<?xml version="1.0" encoding="UTF-8" standalone="no"?>
<!DOCTYPE svg PUBLIC "-//W3C//DTD SVG 1.1//EN" "http://www.w3.org/Graphics/SVG/1.1/DTD/svg11.dtd">
<svg width="100%" height="100%" viewBox="0 0 835 835" version="1.1" xmlns="http://www.w3.org/2000/svg" xmlns:xlink="http://www.w3.org/1999/xlink" xml:space="preserve" xmlns:serif="http://www.serif.com/" style="fill-rule:evenodd;clip-rule:evenodd;stroke-linejoin:round;stroke-miterlimit:2;">
    <g transform="matrix(1,0,0,1,-1129.000932,-363.484249)">
        <g id="core" transform="matrix(1.893555,0,0,1.893555,136,17)">
            <path d="M702.675,407.719C699.021,409.353 587.033,407.811 581.448,408.465C586.256,376.676 617.783,334.229 644.759,313.818C689.681,279.828 705.247,284.427 702.321,277.584C700.011,272.181 670.002,289.291 655.225,299.116C587.532,344.125 576.025,406.258 574.795,408.379C572.687,408.333 570.579,408.288 568.471,408.242C566.266,405.927 566.605,405.637 567.182,402.464C567.808,399.024 566.993,398.569 563.499,398.545C526.926,398.293 524.569,400.161 524.631,396.491C525.443,348.725 545.456,310.101 549.003,303.256C553.442,294.69 578.66,246.023 631.227,215.032C762.06,137.898 909.326,209.4 951.833,329.378C953.66,334.533 964.391,364.821 965.032,396.463C965.11,400.302 957.462,398.143 925.524,398.797C920.708,398.896 924.52,403.919 920.529,408.264C918.258,408.086 915.986,407.908 913.715,407.73C913.77,406.972 913.174,407.19 913.233,406.384C913.256,406.058 913.276,405.796 914.104,402.392C927.789,346.159 902.91,302.478 868.198,280.954C837.875,262.153 803.574,258.193 802.347,261.418C799.204,269.683 819.536,262.845 852.693,279.095C933.295,318.599 909.279,400.477 906.238,408.511C905.649,408.402 904.581,408.204 898.768,407.974C898.78,407.437 898.31,406.961 898.323,406.423C898.407,402.895 902.557,398.915 895.493,398.856C886.935,398.784 804.145,398.092 788.52,398.614C785.589,398.712 788.563,400.855 786.243,407.851C780.329,407.89 780.398,407.964 774.532,407.52C772.524,398.433 778.526,372.014 749.519,371.182C713.121,370.139 717.166,384.248 715.019,407.617C712.22,408.041 703.662,407.753 702.675,407.719Z" style="fill:rgb(221,178,85);"/>
            <path d="M702.675,407.719C703.662,407.753 712.22,408.041 715.019,407.617C714.908,421.888 713.169,426.828 724.549,428.16C726.755,428.418 725.76,429.662 726.335,459.508C726.507,468.425 736.704,473.373 743.19,467.166C746.635,463.869 746.889,470.769 754.552,469.85C764.927,468.606 762.858,458.768 762.904,431.499C762.911,427.542 764.921,428.343 766.464,428.153C778.051,426.724 773.162,413.33 774.532,407.52C780.398,407.964 780.329,407.89 786.243,407.851C788.393,408.721 788.48,408.402 837.5,408.461C896.686,408.533 896.692,408.315 898.768,407.974C904.581,408.204 905.649,408.402 906.238,408.511C903.492,422.5 889.024,450.001 878.161,463.232C847.009,501.175 822.724,515.844 787.504,531.507C785.241,532.514 783.863,539.519 792.58,535.686C848.822,510.959 874.43,478.415 887.813,459.724C906.918,433.042 910.028,412.203 913.715,407.73C915.986,407.908 918.258,408.086 920.529,408.264C936.329,408.639 963.389,407.931 964.338,408.699C965.64,409.753 964.079,427.108 962.287,437.451C959.788,451.882 944.732,538.815 861.258,590.124C794.014,631.456 733.478,623.486 726.527,623.026C645.904,617.696 531.941,549.873 524.42,410.499C524.229,406.975 526.677,409.066 568.471,408.242C570.579,408.288 572.687,408.333 574.795,408.379C574.744,411.968 562.352,456.167 586.97,496.222C622.457,553.961 695.004,553.447 699.497,553.66C704.168,553.881 704.159,550.217 702.411,548.608C700.221,546.593 632.91,550.82 595.878,499.211C574.07,468.818 575.113,429.773 581.448,408.465C587.033,407.811 699.021,409.353 702.675,407.719Z" style="fill:rgb(40,67,79);"/>
            <path d="M715.019,407.617C717.166,384.248 713.121,370.139 749.519,371.182C778.526,372.014 772.524,398.433 774.532,407.52C773.162,413.33 778.051,426.724 766.464,428.153C764.921,428.343 762.911,427.542 762.904,431.499C762.858,458.768 764.927,468.606 754.552,469.85C746.889,470.769 746.635,463.869 743.19,467.166C736.704,473.373 726.507,468.425 726.335,459.508C725.76,429.662 726.755,428.418 724.549,428.16C713.169,426.828 714.908,421.888 715.019,407.617Z" style="fill:rgb(248,250,242);"/>
            <path d="M718.168,273.639C706.631,236.148 753.167,223.444 768.081,246.82C789.406,280.243 737.851,312.787 718.168,273.639Z" style="fill:rgb(252,250,225);"/>
            <path d="M574.795,408.379C576.025,406.258 587.532,344.125 655.225,299.116C670.002,289.291 700.011,272.181 702.321,277.584C705.247,284.427 689.681,279.828 644.759,313.818C617.783,334.229 586.256,376.676 581.448,408.465C575.113,429.773 574.07,468.818 595.878,499.211C632.91,550.82 700.221,546.593 702.411,548.608C704.159,550.217 704.168,553.881 699.497,553.66C695.004,553.447 622.457,553.961 586.97,496.222C562.352,456.167 574.744,411.968 574.795,408.379Z" style="fill:rgb(249,250,240);"/>
            <path d="M913.715,407.73C910.028,412.203 906.918,433.042 887.813,459.724C874.43,478.415 848.822,510.959 792.58,535.686C783.863,539.519 785.241,532.514 787.504,531.507C822.724,515.844 847.009,501.175 878.161,463.232C889.024,450.001 903.492,422.5 906.238,408.511C909.279,400.477 933.295,318.599 852.693,279.095C819.536,262.845 799.204,269.683 802.347,261.418C803.574,258.193 837.875,262.153 868.198,280.954C902.91,302.478 927.789,346.159 914.104,402.392C913.276,405.796 913.256,406.058 913.233,406.384C913.174,407.19 913.77,406.972 913.715,407.73Z" style="fill:rgb(249,249,238);"/>
            <path d="M748.512,578.927C700.933,578.02 702.257,519.509 738.442,511.011C753.179,507.549 741.498,517.092 738.999,521.769C729.414,539.703 744.206,568.934 773.447,556.376C783.81,551.925 772.856,577.207 748.512,578.927Z" style="fill:rgb(246,249,249);"/>
            <path d="M767.129,259.533C767.131,259.972 768.808,270.532 761.473,278.473C741.788,299.784 709.263,271.084 726.775,248.703C734.124,239.312 759.675,231.788 767.129,259.533Z" style="fill:rgb(219,177,84);"/>
            <path d="M721.62,407.609C721.159,406.24 720.231,403.482 721.846,389.544C724.023,370.749 754.661,376.836 759.408,378.729C761.656,379.626 770.847,383.292 768.171,407.694C767.754,407.714 764.563,407.867 762.959,407.631C762.359,401.516 763.521,395.458 761.489,394.518C755.903,391.935 757.437,403.915 757.053,407.662C748.173,408.65 734.475,407.654 732.518,407.511C730.857,395.8 731.864,395.593 731.113,394.911C726.127,390.387 726.663,405.032 726.136,407.675C723.844,407.795 723.923,407.829 721.62,407.609Z" style="fill:rgb(216,176,89);"/>
            <path d="M732.518,407.511C734.475,407.654 748.173,408.65 757.053,407.662C758.023,413.429 757.492,454.434 757.44,458.501C757.431,459.147 757.333,466.704 751.653,464.133C745.189,461.208 750.302,426.873 745.562,425.354C740.311,423.672 742.318,441.255 740.799,459.537C740.288,465.696 734.75,465.383 732.724,462.373C731.631,460.747 731.581,412.413 732.518,407.511Z" style="fill:rgb(45,70,78);"/>
            <path d="M786.243,407.851C788.563,400.855 785.589,398.712 788.52,398.614C804.145,398.092 886.935,398.784 895.493,398.856C902.557,398.915 898.407,402.895 898.323,406.423C898.31,406.961 898.78,407.437 898.768,407.974C896.692,408.315 896.686,408.533 837.5,408.461C788.48,408.402 788.393,408.721 786.243,407.851Z" style="fill:rgb(252,253,244);"/>
            <path d="M766.474,565.49C733.028,592.376 695.52,545.606 732.544,518.601C741.179,512.302 719.15,532.45 738.922,555.093C745.795,562.964 757.525,565.808 763.522,564.768C764.196,564.652 764.869,564.198 765.534,564.361C766.009,564.477 765.998,565.374 766.474,565.49Z" style="fill:rgb(40,65,76);"/>
            <path d="M744.5,337.153C770.79,338.91 759.317,377.14 736.67,365.194C726.359,359.756 725.669,338.899 744.5,337.153Z" style="fill:rgb(252,251,225);"/>
            <path d="M744.508,362.129C732.958,360.801 734.191,349.924 736.766,346.712C748.088,332.59 765.848,359.066 744.508,362.129Z" style="fill:rgb(215,176,88);"/>
            <path d="M757.619,529.792C761.197,527.347 760.416,526.77 761.854,522.646C764.126,516.129 762.568,528.593 771.398,530.766C777.15,532.182 768.447,534.263 768.402,534.281C763.658,536.158 763.961,547.695 761.74,540.405C759.018,531.466 754.325,534.841 752.976,532.351C752.586,531.633 757.221,529.938 757.619,529.792Z" style="fill:rgb(245,249,250);"/>
            <path d="M721.62,407.609C723.923,407.829 723.844,407.795 726.136,407.675C726.859,410.493 727.533,422.477 724.446,423.026C719.997,423.819 718.559,413.827 721.62,407.609Z" style="fill:rgb(49,68,73);"/>
            <path d="M762.959,407.631C764.563,407.867 767.754,407.714 768.171,407.694C769.352,411.112 770.534,422.569 765.457,423C764.215,423.106 761.696,423.122 762.959,407.631Z" style="fill:rgb(48,66,70);"/>
            <path d="M742.071,303.483C742.254,299.559 741.902,299.454 742.656,298.626C748.12,292.622 749.68,311.713 744.497,311.144C740.899,310.749 742.074,303.587 742.071,303.483Z" style="fill:rgb(251,249,212);"/>
            <path d="M703.494,265.701C700.098,265.558 700.043,266.081 697.719,265.077C697.51,264.987 696.075,264.367 696.508,262.502C697.557,257.991 706.641,260.245 707.509,260.46C708.022,260.587 713.571,265.304 703.494,265.701Z" style="fill:rgb(253,250,220);"/>
            <path d="M711.348,233.637C710.504,232.581 710.268,232.748 709.976,231.378C708.158,222.829 724.96,236.287 719.607,238.684C716.366,240.135 712.71,235.003 711.348,233.637Z" style="fill:rgb(250,246,212);"/>
            <path d="M742.07,219.487C742.481,216.728 742.419,216.729 742.513,216.508C745.983,208.341 750.094,226.772 745.592,227.81C740.895,228.892 742.07,222.002 742.07,219.487Z" style="fill:rgb(250,247,209);"/>
            <path d="M787.489,260.247C791.159,260.49 791.79,259.496 792.581,261.447C795.077,267.602 776.964,266.546 779.943,261.74C781.72,258.873 782.49,260.457 787.489,260.247Z" style="fill:rgb(252,250,214);"/>
            <path d="M717.553,293.55C711.284,299.715 710.284,296.167 710.185,295.564C709.546,291.697 722.307,282.263 720.708,289.543C720.481,290.579 720.278,290.427 717.553,293.55Z" style="fill:rgb(251,249,213);"/>
            <path d="M778.191,233.227C775.662,235.879 772.066,240.505 769.504,238.495C767.361,236.813 770.754,233.548 774.657,229.67C776.6,227.74 781.868,227.567 778.191,233.227Z" style="fill:rgb(251,250,220);"/>
            <path d="M776.644,291.347C782.987,297.894 776.144,297.268 775.75,297.031C774.97,296.561 767.84,290.719 768.76,288.575C770.615,284.25 775.755,290.48 776.644,291.347Z" style="fill:rgb(251,250,220);"/>
        </g>
    </g>
</svg>
